<svg xmlns="http://www.w3.org/2000/svg" xmlns:xlink="http://www.w3.org/1999/xlink" width="80" zoomAndPan="magnify" viewBox="0 0 60 52.499999" height="70" preserveAspectRatio="xMidYMid meet" version="1.0"><defs><clipPath id="c0158940e1"><path d="M 20 5.199219 L 38 5.199219 L 38 37 L 20 37 Z M 20 5.199219 " clip-rule="nonzero"/></clipPath><clipPath id="2ed1e3e543"><path d="M 1.160156 36 L 56.878906 36 L 56.878906 45.320312 L 1.160156 45.320312 Z M 1.160156 36 " clip-rule="nonzero"/></clipPath></defs><path fill="#ffd100" d="M 55.113281 37.949219 L 55.113281 30.148438 C 55.113281 21.605469 50.828125 14.171875 44.265625 9.8125 L 13.945312 9.8125 C 7.386719 14.171875 3.101562 21.605469 3.101562 30.148438 L 3.101562 37.949219 L 55.113281 37.949219 " fill-opacity="1" fill-rule="nonzero"/><path fill="#bf1414" d="M 37.484375 6.324219 L 42.832031 7.664062 C 43.785156 7.90625 44.414062 8.832031 44.265625 9.8125 L 40.664062 36.984375 L 34.886719 37.949219 L 37.484375 6.324219 " fill-opacity="1" fill-rule="nonzero"/><path fill="#bf1414" d="M 20.726562 6.324219 L 15.378906 7.664062 C 14.429688 7.90625 13.800781 8.832031 13.945312 9.8125 L 17.546875 36.984375 L 23.328125 37.949219 L 20.726562 6.324219 " fill-opacity="1" fill-rule="nonzero"/><g clip-path="url(#c0158940e1)"><path fill="#ffd100" d="M 22.363281 36.984375 L 20.5625 7.242188 C 20.492188 6.132812 21.375 5.199219 22.484375 5.199219 L 35.726562 5.199219 C 36.839844 5.199219 37.71875 6.132812 37.652344 7.242188 L 35.847656 36.984375 L 22.363281 36.984375 " fill-opacity="1" fill-rule="nonzero"/></g><g clip-path="url(#2ed1e3e543)"><path fill="#bf1414" d="M 50.296875 45.65625 L 7.914062 45.65625 C 4.191406 45.65625 1.171875 42.636719 1.171875 38.914062 C 1.171875 37.847656 2.035156 36.984375 3.101562 36.984375 L 55.113281 36.984375 C 56.175781 36.984375 57.039062 37.847656 57.039062 38.914062 C 57.039062 42.636719 54.023438 45.65625 50.296875 45.65625 " fill-opacity="1" fill-rule="nonzero"/></g><path fill="#bf1414" d="M 28.144531 28.316406 C 27.980469 28.316406 27.816406 28.277344 27.664062 28.1875 C 27.203125 27.925781 27.039062 27.339844 27.308594 26.875 L 30.335938 21.574219 L 26.214844 21.574219 C 25.875 21.574219 25.558594 21.390625 25.386719 21.097656 C 25.210938 20.800781 25.210938 20.429688 25.382812 20.132812 L 29.234375 13.390625 C 29.496094 12.929688 30.085938 12.765625 30.546875 13.035156 C 31.011719 13.296875 31.171875 13.882812 30.90625 14.347656 L 27.875 19.648438 L 31.996094 19.648438 C 32.339844 19.648438 32.65625 19.832031 32.828125 20.125 C 33 20.421875 33 20.792969 32.832031 21.089844 L 28.976562 27.832031 C 28.800781 28.144531 28.476562 28.316406 28.144531 28.316406 " fill-opacity="1" fill-rule="nonzero"/></svg>