<svg xmlns="http://www.w3.org/2000/svg" xmlns:xlink="http://www.w3.org/1999/xlink" width="50" zoomAndPan="magnify" viewBox="0 0 37.5 37.499999" height="50" preserveAspectRatio="xMidYMid meet" version="1.0"><defs><clipPath id="150feb8e23"><path d="M 12 5.472656 L 25 5.472656 L 25 26 L 12 26 Z M 12 5.472656 " clip-rule="nonzero"/></clipPath><clipPath id="601df3932c"><path d="M 0.496094 25 L 36.765625 25 L 36.765625 31.375 L 0.496094 31.375 Z M 0.496094 25 " clip-rule="nonzero"/></clipPath></defs><path fill="#ffd100" d="M 35.246094 26.5625 L 35.246094 21.539062 C 35.246094 16.035156 32.488281 11.25 28.261719 8.441406 L 8.734375 8.441406 C 4.507812 11.25 1.75 16.035156 1.75 21.539062 L 1.75 26.5625 L 35.246094 26.5625 " fill-opacity="1" fill-rule="nonzero"/><path fill="#202020" d="M 23.894531 6.195312 L 27.335938 7.058594 C 27.949219 7.214844 28.355469 7.808594 28.261719 8.441406 L 25.941406 25.941406 L 22.21875 26.5625 L 23.894531 6.195312 " fill-opacity="1" fill-rule="nonzero"/><path fill="#202020" d="M 13.101562 6.195312 L 9.65625 7.058594 C 9.042969 7.214844 8.640625 7.808594 8.734375 8.441406 L 11.054688 25.941406 L 14.777344 26.5625 L 13.101562 6.195312 " fill-opacity="1" fill-rule="nonzero"/><g clip-path="url(#150feb8e23)"><path fill="#ffd100" d="M 14.15625 25.941406 L 12.996094 6.789062 C 12.949219 6.074219 13.519531 5.472656 14.234375 5.472656 L 22.761719 5.472656 C 23.476562 5.472656 24.042969 6.074219 24 6.789062 L 22.839844 25.941406 L 14.15625 25.941406 " fill-opacity="1" fill-rule="nonzero"/></g><g clip-path="url(#601df3932c)"><path fill="#202020" d="M 32.144531 31.527344 L 4.851562 31.527344 C 2.449219 31.527344 0.507812 29.582031 0.507812 27.183594 C 0.507812 26.5 1.0625 25.941406 1.75 25.941406 L 35.246094 25.941406 C 35.933594 25.941406 36.488281 26.5 36.488281 27.183594 C 36.488281 29.582031 34.542969 31.527344 32.144531 31.527344 " fill-opacity="1" fill-rule="nonzero"/></g><path fill="#ffffff" d="M 17.878906 20.359375 C 17.773438 20.359375 17.667969 20.332031 17.570312 20.277344 C 17.273438 20.109375 17.167969 19.730469 17.339844 19.433594 L 19.289062 16.019531 L 16.636719 16.019531 C 16.417969 16.019531 16.210938 15.898438 16.101562 15.710938 C 15.988281 15.519531 15.988281 15.28125 16.097656 15.089844 L 18.582031 10.746094 C 18.75 10.449219 19.128906 10.34375 19.425781 10.515625 C 19.722656 10.6875 19.828125 11.066406 19.65625 11.363281 L 17.707031 14.777344 L 20.359375 14.777344 C 20.578125 14.777344 20.78125 14.894531 20.894531 15.085938 C 21.003906 15.277344 21.003906 15.511719 20.898438 15.703125 L 18.414062 20.046875 C 18.300781 20.25 18.09375 20.359375 17.878906 20.359375 " fill-opacity="1" fill-rule="nonzero"/></svg>