<svg xmlns="http://www.w3.org/2000/svg" xmlns:xlink="http://www.w3.org/1999/xlink" width="120" zoomAndPan="magnify" viewBox="0 0 90 37.5" height="50" preserveAspectRatio="xMidYMid meet" version="1.0"><defs><g/><clipPath id="a04d9e6b81"><path d="M 11 7.777344 L 22 7.777344 L 22 26 L 11 26 Z M 11 7.777344 " clip-rule="nonzero"/></clipPath><clipPath id="5ae71d1735"><path d="M 1.097656 25 L 32 25 L 32 29.984375 L 1.097656 29.984375 Z M 1.097656 25 " clip-rule="nonzero"/></clipPath></defs><g fill="#202020" fill-opacity="1"><g transform="translate(31.883602, 24.99248)"><g><path d="M 5.0625 0.171875 C 4.28125 0.171875 3.578125 0.0351562 2.953125 -0.234375 C 2.328125 -0.503906 1.832031 -0.878906 1.46875 -1.359375 C 1.113281 -1.835938 0.914062 -2.390625 0.875 -3.015625 L 2.640625 -3.015625 C 2.679688 -2.503906 2.914062 -2.082031 3.34375 -1.75 C 3.78125 -1.425781 4.347656 -1.265625 5.046875 -1.265625 C 5.691406 -1.265625 6.203125 -1.40625 6.578125 -1.6875 C 6.953125 -1.976562 7.140625 -2.34375 7.140625 -2.78125 C 7.140625 -3.226562 6.9375 -3.5625 6.53125 -3.78125 C 6.132812 -4 5.519531 -4.210938 4.6875 -4.421875 C 3.925781 -4.628906 3.304688 -4.832031 2.828125 -5.03125 C 2.347656 -5.238281 1.9375 -5.546875 1.59375 -5.953125 C 1.25 -6.359375 1.078125 -6.890625 1.078125 -7.546875 C 1.078125 -8.066406 1.234375 -8.546875 1.546875 -8.984375 C 1.859375 -9.421875 2.300781 -9.765625 2.875 -10.015625 C 3.445312 -10.273438 4.101562 -10.40625 4.84375 -10.40625 C 5.976562 -10.40625 6.894531 -10.117188 7.59375 -9.546875 C 8.289062 -8.972656 8.660156 -8.1875 8.703125 -7.1875 L 7 -7.1875 C 6.96875 -7.726562 6.753906 -8.160156 6.359375 -8.484375 C 5.972656 -8.804688 5.445312 -8.96875 4.78125 -8.96875 C 4.175781 -8.96875 3.691406 -8.835938 3.328125 -8.578125 C 2.960938 -8.316406 2.78125 -7.972656 2.78125 -7.546875 C 2.78125 -7.210938 2.890625 -6.9375 3.109375 -6.71875 C 3.328125 -6.5 3.597656 -6.320312 3.921875 -6.1875 C 4.253906 -6.0625 4.71875 -5.914062 5.3125 -5.75 C 6.039062 -5.550781 6.632812 -5.351562 7.09375 -5.15625 C 7.5625 -4.96875 7.957031 -4.679688 8.28125 -4.296875 C 8.613281 -3.910156 8.785156 -3.40625 8.796875 -2.78125 C 8.796875 -2.21875 8.640625 -1.710938 8.328125 -1.265625 C 8.023438 -0.816406 7.585938 -0.460938 7.015625 -0.203125 C 6.453125 0.046875 5.800781 0.171875 5.0625 0.171875 Z M 5.0625 0.171875 "/></g></g></g><g fill="#202020" fill-opacity="1"><g transform="translate(41.641321, 24.99248)"><g><path d="M 3.140625 -8.359375 C 3.472656 -8.941406 3.972656 -9.425781 4.640625 -9.8125 C 5.304688 -10.207031 6.082031 -10.40625 6.96875 -10.40625 C 7.875 -10.40625 8.695312 -10.1875 9.4375 -9.75 C 10.1875 -9.3125 10.769531 -8.695312 11.1875 -7.90625 C 11.613281 -7.125 11.828125 -6.207031 11.828125 -5.15625 C 11.828125 -4.125 11.613281 -3.203125 11.1875 -2.390625 C 10.769531 -1.578125 10.1875 -0.945312 9.4375 -0.5 C 8.695312 -0.0507812 7.875 0.171875 6.96875 0.171875 C 6.09375 0.171875 5.320312 -0.0234375 4.65625 -0.421875 C 3.988281 -0.816406 3.484375 -1.304688 3.140625 -1.890625 L 3.140625 4.859375 L 1.4375 4.859375 L 1.4375 -10.234375 L 3.140625 -10.234375 Z M 10.09375 -5.15625 C 10.09375 -5.925781 9.9375 -6.597656 9.625 -7.171875 C 9.3125 -7.742188 8.890625 -8.179688 8.359375 -8.484375 C 7.828125 -8.785156 7.242188 -8.9375 6.609375 -8.9375 C 5.992188 -8.9375 5.421875 -8.78125 4.890625 -8.46875 C 4.359375 -8.164062 3.929688 -7.722656 3.609375 -7.140625 C 3.296875 -6.566406 3.140625 -5.898438 3.140625 -5.140625 C 3.140625 -4.367188 3.296875 -3.691406 3.609375 -3.109375 C 3.929688 -2.535156 4.359375 -2.09375 4.890625 -1.78125 C 5.421875 -1.476562 5.992188 -1.328125 6.609375 -1.328125 C 7.242188 -1.328125 7.828125 -1.476562 8.359375 -1.78125 C 8.890625 -2.09375 9.3125 -2.535156 9.625 -3.109375 C 9.9375 -3.691406 10.09375 -4.375 10.09375 -5.15625 Z M 10.09375 -5.15625 "/></g></g></g><g fill="#202020" fill-opacity="1"><g transform="translate(54.277759, 24.99248)"><g><path d="M 3.140625 -13.828125 L 3.140625 0 L 1.4375 0 L 1.4375 -13.828125 Z M 3.140625 -13.828125 "/></g></g></g><g fill="#202020" fill-opacity="1"><g transform="translate(58.876228, 24.99248)"><g><path d="M 10.78125 -5.515625 C 10.78125 -5.191406 10.765625 -4.847656 10.734375 -4.484375 L 2.546875 -4.484375 C 2.609375 -3.472656 2.953125 -2.679688 3.578125 -2.109375 C 4.203125 -1.546875 4.96875 -1.265625 5.875 -1.265625 C 6.601562 -1.265625 7.210938 -1.4375 7.703125 -1.78125 C 8.203125 -2.125 8.550781 -2.582031 8.75 -3.15625 L 10.578125 -3.15625 C 10.304688 -2.175781 9.757812 -1.375 8.9375 -0.75 C 8.113281 -0.132812 7.09375 0.171875 5.875 0.171875 C 4.894531 0.171875 4.019531 -0.046875 3.25 -0.484375 C 2.488281 -0.921875 1.890625 -1.539062 1.453125 -2.34375 C 1.015625 -3.144531 0.796875 -4.078125 0.796875 -5.140625 C 0.796875 -6.203125 1.007812 -7.128906 1.4375 -7.921875 C 1.863281 -8.722656 2.457031 -9.335938 3.21875 -9.765625 C 3.988281 -10.191406 4.875 -10.40625 5.875 -10.40625 C 6.84375 -10.40625 7.695312 -10.191406 8.4375 -9.765625 C 9.1875 -9.347656 9.765625 -8.769531 10.171875 -8.03125 C 10.578125 -7.289062 10.78125 -6.453125 10.78125 -5.515625 Z M 9.03125 -5.875 C 9.03125 -6.519531 8.882812 -7.070312 8.59375 -7.53125 C 8.3125 -8 7.921875 -8.351562 7.421875 -8.59375 C 6.929688 -8.84375 6.390625 -8.96875 5.796875 -8.96875 C 4.929688 -8.96875 4.195312 -8.691406 3.59375 -8.140625 C 2.988281 -7.597656 2.644531 -6.84375 2.5625 -5.875 Z M 9.03125 -5.875 "/></g></g></g><g fill="#202020" fill-opacity="1"><g transform="translate(70.465857, 24.99248)"><g><path d="M 6.421875 -10.421875 C 7.671875 -10.421875 8.679688 -10.046875 9.453125 -9.296875 C 10.222656 -8.546875 10.609375 -7.457031 10.609375 -6.03125 L 10.609375 0 L 8.9375 0 L 8.9375 -5.796875 C 8.9375 -6.816406 8.679688 -7.597656 8.171875 -8.140625 C 7.660156 -8.679688 6.960938 -8.953125 6.078125 -8.953125 C 5.179688 -8.953125 4.46875 -8.671875 3.9375 -8.109375 C 3.40625 -7.546875 3.140625 -6.726562 3.140625 -5.65625 L 3.140625 0 L 1.4375 0 L 1.4375 -10.234375 L 3.140625 -10.234375 L 3.140625 -8.78125 C 3.472656 -9.300781 3.925781 -9.703125 4.5 -9.984375 C 5.082031 -10.273438 5.722656 -10.421875 6.421875 -10.421875 Z M 6.421875 -10.421875 "/></g></g></g><g fill="#202020" fill-opacity="1"><g transform="translate(82.429347, 24.99248)"><g><path d="M 3.140625 -8.578125 C 3.441406 -9.160156 3.867188 -9.613281 4.421875 -9.9375 C 4.972656 -10.257812 5.648438 -10.421875 6.453125 -10.421875 L 6.453125 -8.671875 L 6 -8.671875 C 4.09375 -8.671875 3.140625 -7.632812 3.140625 -5.5625 L 3.140625 0 L 1.4375 0 L 1.4375 -10.234375 L 3.140625 -10.234375 Z M 3.140625 -8.578125 "/></g></g></g><path fill="#ffd100" d="M 30.808594 25.808594 L 30.808594 21.515625 C 30.808594 16.8125 28.449219 12.71875 24.835938 10.320312 L 8.144531 10.320312 C 4.53125 12.71875 2.171875 16.8125 2.171875 21.515625 L 2.171875 25.808594 L 30.808594 25.808594 " fill-opacity="1" fill-rule="nonzero"/><path fill="#202020" d="M 21.101562 8.398438 L 24.046875 9.136719 C 24.570312 9.269531 24.917969 9.777344 24.835938 10.320312 L 22.851562 25.28125 L 19.671875 25.808594 L 21.101562 8.398438 " fill-opacity="1" fill-rule="nonzero"/><path fill="#202020" d="M 11.875 8.398438 L 8.933594 9.136719 C 8.40625 9.269531 8.0625 9.777344 8.144531 10.320312 L 10.125 25.28125 L 13.308594 25.808594 L 11.875 8.398438 " fill-opacity="1" fill-rule="nonzero"/><g clip-path="url(#a04d9e6b81)"><path fill="#ffd100" d="M 12.777344 25.28125 L 11.785156 8.902344 C 11.746094 8.292969 12.230469 7.777344 12.84375 7.777344 L 20.136719 7.777344 C 20.746094 7.777344 21.230469 8.292969 21.195312 8.902344 L 20.203125 25.28125 L 12.777344 25.28125 " fill-opacity="1" fill-rule="nonzero"/></g><g clip-path="url(#5ae71d1735)"><path fill="#202020" d="M 28.15625 30.050781 L 4.820312 30.050781 C 2.769531 30.050781 1.109375 28.390625 1.109375 26.339844 C 1.109375 25.753906 1.585938 25.28125 2.171875 25.28125 L 30.808594 25.28125 C 31.394531 25.28125 31.867188 25.753906 31.867188 26.339844 C 31.867188 28.390625 30.207031 30.050781 28.15625 30.050781 " fill-opacity="1" fill-rule="nonzero"/></g><path fill="#ffffff" d="M 15.957031 20.507812 C 15.871094 20.507812 15.777344 20.484375 15.695312 20.4375 C 15.441406 20.292969 15.351562 19.96875 15.5 19.714844 L 17.167969 16.792969 L 14.898438 16.792969 C 14.710938 16.792969 14.535156 16.691406 14.441406 16.53125 C 14.34375 16.367188 14.34375 16.164062 14.4375 16 L 16.558594 12.289062 C 16.703125 12.035156 17.027344 11.945312 17.28125 12.09375 C 17.539062 12.238281 17.625 12.558594 17.480469 12.816406 L 15.8125 15.734375 L 18.078125 15.734375 C 18.269531 15.734375 18.441406 15.835938 18.539062 15.996094 C 18.632812 16.160156 18.632812 16.363281 18.539062 16.527344 L 16.417969 20.238281 C 16.320312 20.410156 16.144531 20.507812 15.957031 20.507812 " fill-opacity="1" fill-rule="nonzero"/></svg>