<svg xmlns="http://www.w3.org/2000/svg" xmlns:xlink="http://www.w3.org/1999/xlink" width="100" zoomAndPan="magnify" viewBox="0 0 75 74.999997" height="100" preserveAspectRatio="xMidYMid meet" version="1.0"><defs><clipPath id="58efb3cb43"><path d="M 1.695312 1.695312 L 72.945312 1.695312 L 72.945312 72.945312 L 1.695312 72.945312 Z M 1.695312 1.695312 " clip-rule="nonzero"/></clipPath></defs><g clip-path="url(#58efb3cb43)"><path fill="#f69719" d="M 37.492188 2.980469 C 56.550781 2.980469 72 18.433594 72 37.492188 C 72 56.550781 56.550781 72 37.492188 72 C 18.433594 72 2.980469 56.550781 2.980469 37.492188 C 2.980469 18.433594 18.433594 2.980469 37.492188 2.980469 Z M 37.492188 1.691406 C 17.71875 1.691406 1.691406 17.71875 1.691406 37.492188 C 1.691406 57.261719 17.71875 73.289062 37.492188 73.289062 C 57.261719 73.289062 73.289062 57.261719 73.289062 37.492188 C 73.289062 17.71875 57.261719 1.691406 37.492188 1.691406 Z M 54.648438 21.5625 L 54.648438 36.535156 L 50.429688 33.8125 L 42.449219 38.765625 L 41.109375 39.601562 L 40.324219 40.085938 L 40.324219 17.128906 L 31.253906 22.75 L 31.253906 32.625 L 29.128906 31.183594 L 29.128906 21.5625 L 42.449219 13.308594 Z M 7.695312 37.492188 C 7.695312 21.035156 21.035156 7.695312 37.492188 7.695312 C 53.945312 7.695312 67.285156 21.035156 67.285156 37.492188 C 67.285156 45.09375 64.433594 52.03125 59.746094 57.292969 L 59.746094 41.425781 L 50.464844 35.144531 L 40.324219 41.425781 L 40.324219 67.148438 C 39.390625 67.238281 38.445312 67.285156 37.492188 67.285156 C 36.535156 67.285156 35.589844 67.238281 34.660156 67.148438 L 34.660156 36.371094 L 25.375 30.085938 L 15.234375 36.371094 L 15.234375 57.292969 C 10.546875 52.03125 7.695312 45.09375 7.695312 37.492188 Z M 16.855469 37.273438 L 23.757812 32.996094 L 23.757812 63.929688 C 21.21875 62.609375 18.898438 60.933594 16.855469 58.972656 Z M 41.941406 42.328125 L 48.84375 38.050781 L 48.84375 65.042969 C 46.660156 65.941406 44.347656 66.59375 41.941406 66.953125 Z M 4.707031 37.492188 C 4.707031 55.597656 19.386719 70.273438 37.492188 70.273438 C 55.597656 70.273438 70.273438 55.597656 70.273438 37.492188 C 70.273438 19.386719 55.597656 4.707031 37.492188 4.707031 C 19.386719 4.707031 4.707031 19.386719 4.707031 37.492188 " fill-opacity="1" fill-rule="nonzero"/></g></svg>