<svg xmlns="http://www.w3.org/2000/svg" xmlns:xlink="http://www.w3.org/1999/xlink" width="100" zoomAndPan="magnify" viewBox="0 0 75 74.999997" height="100" preserveAspectRatio="xMidYMid meet" version="1.0"><defs><clipPath id="5ff3920dca"><path d="M 1.097656 1.097656 L 73.847656 1.097656 L 73.847656 73.847656 L 1.097656 73.847656 Z M 1.097656 1.097656 " clip-rule="nonzero"/></clipPath></defs><g clip-path="url(#5ff3920dca)"><path fill="#000000" d="M 37.472656 1.097656 C 17.414062 1.097656 1.097656 17.414062 1.097656 37.472656 C 1.097656 57.53125 17.414062 73.847656 37.472656 73.847656 C 57.53125 73.847656 73.847656 57.53125 73.847656 37.472656 C 73.847656 17.414062 57.53125 1.097656 37.472656 1.097656 Z M 60.488281 58.984375 C 55.742188 50.878906 47.042969 45.800781 37.472656 45.800781 C 27.902344 45.800781 19.203125 50.878906 14.457031 58.984375 C 9.183594 53.347656 5.949219 45.78125 5.949219 37.472656 C 5.949219 20.089844 20.089844 5.949219 37.472656 5.949219 C 54.855469 5.949219 69 20.089844 69 37.472656 C 69 45.78125 65.761719 53.347656 60.488281 58.984375 Z M 60.488281 58.984375 " fill-opacity="1" fill-rule="nonzero"/></g><path fill="#000000" d="M 37.472656 11.851562 C 29.296875 11.851562 22.644531 18.503906 22.644531 26.679688 C 22.644531 34.855469 29.296875 41.507812 37.472656 41.507812 C 45.648438 41.507812 52.300781 34.855469 52.300781 26.679688 C 52.300781 18.503906 45.648438 11.851562 37.472656 11.851562 Z M 37.472656 11.851562 " fill-opacity="1" fill-rule="nonzero"/></svg>